<?xml version="1.0" encoding="UTF-8"?>
<svg id="Layer_1" data-name="Layer 1" xmlns="http://www.w3.org/2000/svg" viewBox="0 0 110.62 88.25">
  <defs>
    <style>
      .cls-1 {
        stroke-width: 0px;
      }
    </style>
  </defs>
  <path class="cls-1" d="m74.38,0C85.12,0,98-.37,106,8.88c3.12,3.62,4.62,8.25,4.62,13,0,6.75-3.38,14-8.75,18.12-5.25,4-11.5,5.25-17.88,5.88,4.12.25,7,2.12,8.25,3,2.5,2,4.62,5.38,4.62,12,0,5.38-.75,7-2,16-.38,2.75-.5,4.25-.5,5.62,0,2.38.5,3.62,1.12,4.62.38.38.62.62,1.25,1.12h-31.38c-.75-2-.88-2.88-.88-5,.12-5,1.25-12.25,1.38-13,.5-3.38.62-5,.62-6.75,0-.88.12-5.5-3.5-7.25-2.38-1.25-5.38-1-10.75-1.12h-8.88l-11.25,33.12H0L30.38,0h44Zm-24.38,36h7.12c7.5,0,11.75,0,15-1.38,3.5-1.5,6.62-5.38,6.5-9.25,0-2.25-1-3.62-1.5-4.25-2.5-2.38-6.25-2.12-12.5-2.25h-8.75l-5.88,17.12Z"/>
</svg>